<svg width="19" height="19" viewBox="0 0 19 19" fill="none" xmlns="http://www.w3.org/2000/svg">
<path fill-rule="evenodd" clip-rule="evenodd" d="M14.6359 12.9L18.0359 16.29C18.2252 16.4778 18.3317 16.7334 18.3317 17C18.3317 17.2666 18.2252 17.5222 18.0359 17.71C17.8482 17.8993 17.5926 18.0058 17.3259 18.0058C17.0593 18.0058 16.8037 17.8993 16.6159 17.71L13.2259 14.31C11.8284 15.407 10.1026 16.0022 8.32593 16C3.90765 16 0.325928 12.4183 0.325928 8C0.325928 3.58172 3.90765 0 8.32593 0C12.7442 0 16.3259 3.58172 16.3259 8C16.3281 9.77666 15.7329 11.5025 14.6359 12.9ZM8.32593 2C5.01222 2 2.32593 4.68629 2.32593 8C2.32593 11.3137 5.01222 14 8.32593 14C11.6396 14 14.3259 11.3137 14.3259 8C14.3259 4.68629 11.6396 2 8.32593 2Z" fill="#919EAB"/>
</svg>
