<svg version="1.1" xmlns="http://www.w3.org/2000/svg" viewBox="0 0 322.27713560555185 383" width="644.5542712111037" height="766">
  <!-- svg-source:excalidraw -->
  
  <defs>
    <style>
      @font-face {
        font-family: "Virgil";
        src: url("https://excalidraw.com/Virgil.woff2");
      }
      @font-face {
        font-family: "Cascadia";
        src: url("https://excalidraw.com/Cascadia.woff2");
      }
    </style>
  </defs>
  <g stroke-linecap="round" transform="translate(10 43.75467433836343) rotate(0 151.13856780277592 151.9876360323102)"><path d="M155.18 0.21 L300.27 154.06 L153.77 302.76 L-0.17 155.32" stroke="none" stroke-width="0" fill="#000000" fill-rule="evenodd"></path><path d="M152.89 -3.14 C187.67 39.54, 222.47 76.11, 299.43 150.08 M153.26 -1.61 C181.65 32.32, 215.64 67.77, 302.08 153.68 M299.48 153.14 C247.96 202.88, 193.16 261.88, 150.4 301.96 M301.94 152.7 C253.98 201.22, 206.8 249.95, 152.89 302.31 M155.01 300.6 C117.02 267.29, 76.05 225.68, -0.02 153.65 M151.75 305.07 C115.46 265.46, 77.67 228.55, -0.8 152.24 M-3.02 152.04 C48.46 101.43, 96.7 52.03, 153.68 2.42 M0.53 151.69 C47.17 109.97, 89.46 64.17, 150.42 -0.86" stroke="#000000" stroke-width="1" fill="none"></path></g><g stroke-opacity="0.2" fill-opacity="0.2" transform="translate(27.921222306522395 10) rotate(0 131.5 181.5)"><text x="0" y="290" font-family="Helvetica, Segoe UI Emoji" font-size="314.69476554543155px" fill="#ffffff" text-anchor="start" style="white-space: pre;" direction="ltr">M</text></g><g stroke-linecap="round" transform="translate(28.899009333629692 126.3690866114498) rotate(0 72.25979793660599 29.28723299928481)"><path d="M1.37 2.01 L145.31 1.13 L147.23 57.25 L-0.05 55.55" stroke="none" stroke-width="0" fill="#228be6"></path><path d="M3.51 0.85 C31.98 -4.43, 73.28 -2.91, 144.41 -1.42 M-1.69 1.7 C41.27 -0.45, 85.99 0.78, 146.39 -0.62 M143.4 2.8 C141.54 13.71, 140.76 22.22, 142.26 55.31 M145.11 0.82 C143.8 16.65, 146.13 33.02, 145.9 58.61 M148.16 56.1 C93.6 58.83, 51.96 58.01, 2.99 57.42 M142.54 57.02 C100.24 59.33, 58.41 57.51, -0.7 57.68 M0.23 62.2 C2.2 42.85, -0.2 23.9, -1.24 -1.65 M-0.25 57.86 C0.51 37.78, -2.95 15.84, -1.52 1.29" stroke="#000000" stroke-width="1" fill="none"></path></g><g stroke-linecap="round" transform="translate(-14.656560405107484 168.03280152183834) rotate(270.84594670019624 133.37543519173641 27.810254205472347)"><path d="M-1.23 -3.57 L269.49 2.26 L268.65 57.6 L2.61 52.06" stroke="none" stroke-width="0" fill="#fa5252"></path><path d="M1.94 2.57 C69.95 -3.24, 137.26 -4.67, 267.17 2.33 M1.47 1 C89.49 0.77, 177.6 1.77, 266.12 -0.45 M267.19 -0.57 C264.79 20.31, 267.82 39.18, 268.27 56.67 M266.74 1.28 C266.66 16.08, 265.54 33.12, 266.25 54.11 M263.63 55.45 C198.85 59.44, 128.7 60.47, 2.36 56.68 M267.19 54.68 C187.82 51.19, 109.73 50.52, 1.57 55.55 M-2.27 59.24 C1.18 37.67, 3.66 18.55, -0.48 -1.56 M1.53 56.03 C0.4 42.47, 1.18 27.05, 0.98 1.66" stroke="#000000" stroke-width="1" fill="none"></path></g><g stroke-linecap="round" transform="translate(28.67601528891464 205.9352367704796) rotate(0 133.37543519173641 27.810254205472347)"><path d="M1.76 3.58 L267.11 0.8 L265.48 56.96 L-3.06 54.23" stroke="none" stroke-width="0" fill="#fab005"></path><path d="M-0.86 -1.02 C88.84 0.37, 174.42 0.7, 264.74 -2.64 M-1.07 -0.53 C89.83 -3.52, 180.97 -3.82, 265.35 1.29 M265.99 3.52 C268.41 17.18, 268.76 43.32, 263.33 56.26 M266.25 1.68 C264.62 17.64, 266.3 31.81, 265.84 57.47 M269.04 56.66 C179.62 56.1, 87.55 58.09, -2.38 52.78 M265.23 55.82 C176.86 56.48, 91.11 55.97, 0.81 57.03 M3.62 52.09 C-3.12 32.37, -1.28 14.05, 1.73 -3.46 M-1.81 55.67 C0.51 40.06, 2.56 27.04, 0.3 -1.26" stroke="#000000" stroke-width="1" fill="none"></path></g><g stroke-linecap="round" transform="translate(68.31016082750739 168.8649027532142) rotate(270.84594670019624 133.37543519173641 27.810254205472347)"><path d="M2.32 -1.47 L267.16 3.76 L270.06 58.11 L3.04 53.04" stroke="none" stroke-width="0" fill="#be4bdb"></path><path d="M1.44 -1.42 C90.34 -2.03, 177.81 -0.67, 265.94 0.78 M1.5 -0.26 C74.8 -1.79, 153.58 -2.36, 267.83 1.07 M270.19 -0.38 C263.39 18.58, 267.48 40.51, 264.03 53.97 M266.33 1.75 C266.7 14.26, 267.85 31.96, 264.81 55.5 M264.4 55.21 C211.84 60.87, 156.96 59.68, 0.22 55.95 M265.98 55.94 C179.5 60.67, 90.02 60.83, 0.69 55.91 M-3.55 57.87 C2.88 42.72, -1.01 21.92, 1.65 1.42 M-0.64 56.79 C-0.21 43.71, 2.4 30.2, 0.12 1.9" stroke="#000000" stroke-width="1" fill="none"></path></g><g stroke-linecap="round" transform="translate(148.09321861625995 127.26578759560016) rotate(0 73.45653581437045 29.28723299928481)"><path d="M-1.77 -3.55 L143.91 -2.34 L147.04 62.44 L0.25 55.59" stroke="none" stroke-width="0" fill="#228be6"></path><path d="M-2.77 -0.39 C36.61 2.28, 64.35 0.76, 142.96 1.96 M-1.17 -1.74 C48.75 -0.27, 97.67 -1.9, 145.15 -1.61 M149.57 -1.03 C144.81 18.99, 149.3 35.67, 144.14 55.86 M147.78 -1.23 C145.02 19.97, 145.08 40.27, 145.68 58.33 M148.18 55.61 C112.12 60.66, 78.47 56.11, -1.68 56.91 M147.47 59.39 C103.05 55.22, 58.79 56.15, 0.6 56.75 M0.71 62.36 C4.24 47.55, 3.96 30.15, -0.16 -0.34 M1.6 59.88 C-1.22 46.27, 1.79 33.91, -1.62 1.36" stroke="#000000" stroke-width="1" fill="none"></path></g><g stroke-linecap="round" transform="translate(31.836484959553673 276.46128930632517) rotate(0 21.862882212797103 21.862882212797103)"><path d="M11.18 4.71 C14.51 2.2, 20.57 -2.02, 25.06 -1.42 C29.55 -0.82, 34.96 4.61, 38.1 8.31 C41.24 12, 44 15.79, 43.89 20.75 C43.79 25.71, 40.65 34.3, 37.48 38.05 C34.31 41.8, 29.06 42.94, 24.85 43.25 C20.65 43.56, 16.44 42.41, 12.25 39.92 C8.07 37.44, 1.72 32.76, -0.25 28.36 C-2.21 23.96, -1.99 18.33, 0.46 13.5 C2.91 8.68, 11.51 1.86, 14.45 -0.59 C17.4 -3.04, 17.91 -1.77, 18.13 -1.19 M29.96 3.9 C34.14 6.77, 38.68 13.31, 40.42 17.05 C42.17 20.79, 41.14 22.11, 40.42 26.34 C39.69 30.56, 39.56 39.42, 36.05 42.39 C32.54 45.37, 24.85 45.21, 19.37 44.19 C13.88 43.17, 6.79 39.79, 3.14 36.25 C-0.51 32.72, -3.31 27.74, -2.53 22.95 C-1.76 18.17, 4.1 11.57, 7.77 7.54 C11.44 3.51, 15.78 -0.38, 19.48 -1.23 C23.17 -2.08, 27.67 2.16, 29.94 2.44 C32.2 2.72, 32.65 -0.18, 33.05 0.46" stroke="none" stroke-width="0" fill="#228be6"></path><path d="M19.56 1.41 C24.1 1.11, 30.94 3.05, 34.74 5.83 C38.55 8.6, 40.98 13.88, 42.37 18.07 C43.76 22.25, 44.87 26.85, 43.07 30.93 C41.28 35.02, 35.95 40.68, 31.6 42.57 C27.25 44.45, 21.8 43.8, 16.96 42.25 C12.11 40.69, 5.48 37.01, 2.52 33.26 C-0.44 29.51, -1.26 24.39, -0.8 19.75 C-0.35 15.1, -1 7.85, 5.22 5.39 C11.45 2.92, 30.6 2.81, 36.55 4.96 C42.5 7.12, 41.29 18.35, 40.92 18.31 M14.36 2.96 C19.13 1.07, 29.46 -0.74, 33.68 1.08 C37.89 2.9, 37.81 9.69, 39.64 13.88 C41.47 18.07, 45.38 21.62, 44.65 26.2 C43.93 30.78, 39.17 38.56, 35.29 41.37 C31.4 44.18, 25.93 43.68, 21.34 43.07 C16.75 42.46, 11.6 40.58, 7.77 37.71 C3.93 34.84, -0.79 30.39, -1.66 25.83 C-2.54 21.27, -0.59 14.62, 2.54 10.34 C5.67 6.07, 14.88 1.3, 17.11 0.2 C19.35 -0.89, 16.34 2.95, 15.98 3.77" stroke="#000000" stroke-width="1" fill="none"></path></g><g stroke-linecap="round" transform="translate(34.251270726182156 66.63300149782344) rotate(0 21.862882212797103 21.862882212797103)"><path d="M30.16 4 C34.62 5.19, 40.16 8.2, 42.34 11.88 C44.51 15.56, 44.7 21.16, 43.22 26.07 C41.73 30.99, 37.4 38.51, 33.43 41.36 C29.45 44.21, 23.96 43.95, 19.36 43.15 C14.76 42.35, 8.82 39.81, 5.82 36.55 C2.83 33.3, 1.35 28.33, 1.39 23.63 C1.42 18.93, 3.2 11.94, 6.04 8.35 C8.88 4.75, 12.82 1.79, 18.41 2.06 C24.01 2.33, 35.32 6.88, 39.6 9.96 C43.87 13.05, 44.43 20.71, 44.05 20.59 M8.7 1.7 C13.01 -0.63, 23.3 0.08, 27.77 1.3 C32.24 2.52, 32.65 5.98, 35.51 9.01 C38.37 12.04, 44.49 15.19, 44.94 19.47 C45.38 23.76, 40.95 31.12, 38.16 34.72 C35.37 38.33, 32.3 39.69, 28.21 41.12 C24.12 42.54, 18.28 45.52, 13.63 43.27 C8.99 41.01, 2.28 32.02, 0.35 27.57 C-1.57 23.12, 0.67 20.45, 2.09 16.58 C3.51 12.71, 7.2 6.23, 8.87 4.34 C10.55 2.46, 11.78 4.89, 12.16 5.28" stroke="none" stroke-width="0" fill="#e64980"></path><path d="M21.82 0.81 C26.17 0.66, 34.09 0.77, 37.62 4.13 C41.15 7.48, 42.69 16.29, 42.99 20.94 C43.29 25.59, 42.16 28.42, 39.43 32.04 C36.69 35.66, 31.13 41.32, 26.59 42.68 C22.05 44.03, 16.3 41.88, 12.17 40.15 C8.04 38.41, 3.44 36.02, 1.82 32.25 C0.2 28.49, 1.35 22.34, 2.45 17.57 C3.55 12.81, 4.02 6.74, 8.41 3.68 C12.81 0.62, 24.92 -0.96, 28.83 -0.77 C32.74 -0.58, 32.29 4.17, 31.87 4.82 M38.53 4.68 C41.95 6.96, 42.77 13.29, 43.13 18.64 C43.49 23.99, 43.64 32.71, 40.71 36.79 C37.78 40.87, 30.86 42.34, 25.54 43.12 C20.22 43.91, 12.31 43.48, 8.8 41.51 C5.29 39.53, 5.98 35.92, 4.46 31.27 C2.94 26.62, -0.79 17.98, -0.32 13.61 C0.15 9.23, 2.69 7.47, 7.29 5.01 C11.9 2.56, 22.26 -1.74, 27.29 -1.13 C32.31 -0.53, 35.96 7.37, 37.46 8.66 C38.95 9.95, 36.22 7.05, 36.25 6.62" stroke="#000000" stroke-width="1" fill="none"></path></g><g stroke-linecap="round" transform="translate(245.99705278114652 65.36303505141223) rotate(0 21.862882212797103 21.862882212797103)"><path d="M39.71 9.98 C42.18 13.63, 42.54 19.14, 42.18 23.22 C41.82 27.31, 40.3 31.33, 37.56 34.49 C34.81 37.66, 30.07 41.44, 25.72 42.22 C21.37 42.99, 15.71 41.45, 11.44 39.14 C7.17 36.84, 1.5 32.37, 0.09 28.37 C-1.33 24.37, 1.34 19.42, 2.96 15.14 C4.58 10.87, 6.05 4.99, 9.81 2.72 C13.56 0.46, 20.2 -0.29, 25.47 1.57 C30.74 3.43, 38.23 11.1, 41.42 13.89 C44.61 16.68, 44.76 18.11, 44.61 18.3 M3.98 7.09 C5.82 3.67, 11.06 1.44, 15.49 0.6 C19.91 -0.24, 25.97 -0.68, 30.51 2.08 C35.04 4.84, 41.03 12.82, 42.69 17.17 C44.34 21.51, 41.94 23.96, 40.43 28.17 C38.91 32.38, 37.82 40.05, 33.61 42.44 C29.4 44.82, 19.5 43.84, 15.18 42.49 C10.86 41.13, 10.6 38.27, 7.67 34.32 C4.74 30.36, -2.02 23.53, -2.41 18.74 C-2.8 13.95, 4.43 7.55, 5.31 5.57 C6.19 3.58, 2.5 5.79, 2.88 6.83" stroke="none" stroke-width="0" fill="#228be6"></path><path d="M4.91 8.96 C7.63 4.95, 12.85 2.33, 16.92 0.94 C21 -0.45, 25.39 -1.44, 29.35 0.63 C33.31 2.69, 38.09 8.96, 40.66 13.35 C43.23 17.74, 45.55 22.44, 44.75 26.96 C43.96 31.49, 39.74 37.69, 35.9 40.52 C32.06 43.35, 26.37 44.16, 21.7 43.95 C17.03 43.73, 11.55 42.25, 7.87 39.24 C4.2 36.22, -0.08 30.96, -0.33 25.83 C-0.58 20.7, 5.31 11.43, 6.37 8.45 C7.43 5.48, 6.05 7.7, 6.01 7.97 M31.91 0.89 C36.89 2.55, 41.41 7.86, 43.69 11.58 C45.97 15.3, 47.33 18.26, 45.57 23.22 C43.82 28.18, 36.97 38.3, 33.14 41.33 C29.32 44.36, 26.83 42.37, 22.62 41.42 C18.4 40.48, 11.13 38.1, 7.84 35.66 C4.54 33.23, 3.58 30.94, 2.86 26.82 C2.13 22.71, 1.74 15.53, 3.51 10.98 C5.28 6.43, 9.47 1.06, 13.45 -0.47 C17.44 -2, 24.36 1.3, 27.42 1.8 C30.48 2.29, 31.76 2.54, 31.82 2.52" stroke="#000000" stroke-width="1" fill="none"></path></g><g stroke-linecap="round" transform="translate(243.7815259427034 276.50928439828704) rotate(0 21.862882212797103 21.862882212797103)"><path d="M5.15 8.53 C7.62 4.41, 12.91 -0.67, 17.57 -1.47 C22.22 -2.27, 29.21 0.91, 33.09 3.74 C36.96 6.57, 39.11 11.26, 40.81 15.51 C42.51 19.76, 44.59 25.25, 43.27 29.24 C41.96 33.23, 37.39 37.38, 32.9 39.46 C28.42 41.54, 21.39 42.36, 16.39 41.7 C11.39 41.04, 5.42 39.21, 2.93 35.5 C0.44 31.79, 0.14 25.19, 1.44 19.44 C2.74 13.68, 7.7 4, 10.72 0.98 C13.74 -2.05, 19.23 0.41, 19.57 1.28 M31.71 4.72 C35.47 6.99, 41 9.39, 42.52 14.05 C44.03 18.72, 42.87 28.43, 40.79 32.72 C38.72 37.01, 33.97 37.77, 30.07 39.8 C26.17 41.83, 21.92 45.83, 17.39 44.89 C12.86 43.95, 5.55 38.41, 2.86 34.13 C0.17 29.84, 0.55 23.36, 1.25 19.18 C1.96 15, 4.2 11.98, 7.11 9.06 C10.02 6.13, 14.69 2.76, 18.72 1.64 C22.74 0.52, 29.11 1.68, 31.26 2.34 C33.41 2.99, 30.9 5.5, 31.6 5.55" stroke="none" stroke-width="0" fill="#fa5252"></path><path d="M34.7 2.02 C38.73 4.31, 42.18 10.54, 43.4 15.07 C44.61 19.6, 43.51 25.12, 41.99 29.2 C40.47 33.27, 38.08 37.18, 34.3 39.52 C30.52 41.86, 24.45 44.05, 19.29 43.24 C14.14 42.42, 6.33 38.47, 3.39 34.63 C0.45 30.79, 1.31 24.39, 1.64 20.19 C1.97 15.99, 2.72 13.07, 5.37 9.45 C8.03 5.83, 11.71 -1.92, 17.56 -1.51 C23.42 -1.11, 36.18 8.04, 40.49 11.89 C44.8 15.75, 43.8 21.19, 43.43 21.64 M14.53 -1.33 C18.57 -3.48, 25.13 -1.77, 29.45 0.41 C33.77 2.6, 38.62 7.46, 40.44 11.79 C42.27 16.13, 41.81 21.72, 40.41 26.43 C39 31.13, 35.43 36.88, 32.03 40.01 C28.63 43.14, 24.66 46.04, 19.99 45.21 C15.33 44.38, 7.76 38.33, 4.03 35.04 C0.3 31.75, -2.02 29.19, -2.4 25.47 C-2.77 21.76, -0.89 17.32, 1.77 12.77 C4.43 8.23, 10.73 -0.17, 13.55 -1.78 C16.38 -3.39, 18.13 2.17, 18.74 3.09" stroke="#000000" stroke-width="1" fill="none"></path></g></svg>